<mxfile host="app.diagrams.net" modified="2023-03-15T18:14:34.712Z" agent="5.0 (Windows NT 10.0; Win64; x64) AppleWebKit/537.36 (KHTML, like Gecko) Chrome/110.0.0.0 Safari/537.36" etag="f7LQt1vLW77kMdlcU_oQ" version="21.0.6" type="github" pages="4">
  <diagram id="C5RBs43oDa-KdzZeNtuy" name="Liste">
    <mxGraphModel dx="2130" dy="1453" grid="1" gridSize="10" guides="1" tooltips="1" connect="1" arrows="1" fold="1" page="1" pageScale="1" pageWidth="827" pageHeight="1169" math="0" shadow="0">
      <root>
        <mxCell id="WIyWlLk6GJQsqaUBKTNV-0" />
        <mxCell id="WIyWlLk6GJQsqaUBKTNV-1" parent="WIyWlLk6GJQsqaUBKTNV-0" />
        <mxCell id="LtnXMF4uBp7m2lb51uMG-0" value="INIZIO" style="ellipse;whiteSpace=wrap;html=1;fontSize=16;" vertex="1" parent="WIyWlLk6GJQsqaUBKTNV-1">
          <mxGeometry x="187.5" y="160" width="65" height="50" as="geometry" />
        </mxCell>
        <mxCell id="LtnXMF4uBp7m2lb51uMG-1" value="import random" style="rounded=0;whiteSpace=wrap;html=1;fontSize=16;" vertex="1" parent="WIyWlLk6GJQsqaUBKTNV-1">
          <mxGeometry x="170" y="240" width="100" height="40" as="geometry" />
        </mxCell>
        <mxCell id="LtnXMF4uBp7m2lb51uMG-2" value="lista_maiuscole" style="rounded=0;whiteSpace=wrap;html=1;fontSize=16;" vertex="1" parent="WIyWlLk6GJQsqaUBKTNV-1">
          <mxGeometry x="160" y="300" width="120" height="50" as="geometry" />
        </mxCell>
        <mxCell id="LtnXMF4uBp7m2lb51uMG-3" value="" style="endArrow=classic;html=1;rounded=0;fontSize=12;startSize=8;endSize=8;curved=1;exitX=0.5;exitY=1;exitDx=0;exitDy=0;" edge="1" parent="WIyWlLk6GJQsqaUBKTNV-1" source="LtnXMF4uBp7m2lb51uMG-0">
          <mxGeometry width="50" height="50" relative="1" as="geometry">
            <mxPoint x="220" y="220" as="sourcePoint" />
            <mxPoint x="220" y="240" as="targetPoint" />
            <Array as="points" />
          </mxGeometry>
        </mxCell>
        <mxCell id="LtnXMF4uBp7m2lb51uMG-4" value="" style="endArrow=classic;html=1;rounded=0;fontSize=12;startSize=8;endSize=8;curved=1;entryX=0.5;entryY=0;entryDx=0;entryDy=0;exitX=0.5;exitY=1;exitDx=0;exitDy=0;" edge="1" parent="WIyWlLk6GJQsqaUBKTNV-1" source="LtnXMF4uBp7m2lb51uMG-1" target="LtnXMF4uBp7m2lb51uMG-2">
          <mxGeometry width="50" height="50" relative="1" as="geometry">
            <mxPoint x="220" y="320" as="sourcePoint" />
            <mxPoint x="230" y="360" as="targetPoint" />
          </mxGeometry>
        </mxCell>
        <mxCell id="LtnXMF4uBp7m2lb51uMG-5" value="" style="endArrow=classic;html=1;rounded=0;fontSize=12;startSize=8;endSize=8;curved=1;" edge="1" parent="WIyWlLk6GJQsqaUBKTNV-1">
          <mxGeometry width="50" height="50" relative="1" as="geometry">
            <mxPoint x="220" y="410" as="sourcePoint" />
            <mxPoint x="220" y="440" as="targetPoint" />
            <Array as="points">
              <mxPoint x="220" y="410" />
            </Array>
          </mxGeometry>
        </mxCell>
        <mxCell id="LtnXMF4uBp7m2lb51uMG-6" value="lista_minuscole" style="rounded=0;whiteSpace=wrap;html=1;fontSize=16;" vertex="1" parent="WIyWlLk6GJQsqaUBKTNV-1">
          <mxGeometry x="160" y="380" width="120" height="60" as="geometry" />
        </mxCell>
        <mxCell id="LtnXMF4uBp7m2lb51uMG-9" value="lista_numeri" style="rounded=0;whiteSpace=wrap;html=1;fontSize=16;" vertex="1" parent="WIyWlLk6GJQsqaUBKTNV-1">
          <mxGeometry x="170" y="470" width="100" height="50" as="geometry" />
        </mxCell>
        <mxCell id="_vvKJYAs0xgq3MKUHlG_-1" value="" style="endArrow=classic;html=1;rounded=0;fontSize=12;startSize=8;endSize=8;curved=1;exitX=0.5;exitY=1;exitDx=0;exitDy=0;" edge="1" parent="WIyWlLk6GJQsqaUBKTNV-1" source="LtnXMF4uBp7m2lb51uMG-9">
          <mxGeometry width="50" height="50" relative="1" as="geometry">
            <mxPoint x="200" y="650" as="sourcePoint" />
            <mxPoint x="220" y="550" as="targetPoint" />
          </mxGeometry>
        </mxCell>
        <mxCell id="_vvKJYAs0xgq3MKUHlG_-2" value="lista_simboli" style="rounded=0;whiteSpace=wrap;html=1;fontSize=16;" vertex="1" parent="WIyWlLk6GJQsqaUBKTNV-1">
          <mxGeometry x="170" y="550" width="100" height="40" as="geometry" />
        </mxCell>
        <mxCell id="_vvKJYAs0xgq3MKUHlG_-3" value="" style="endArrow=classic;html=1;rounded=0;fontSize=12;startSize=8;endSize=8;curved=1;exitX=0.5;exitY=1;exitDx=0;exitDy=0;" edge="1" parent="WIyWlLk6GJQsqaUBKTNV-1" source="_vvKJYAs0xgq3MKUHlG_-2">
          <mxGeometry width="50" height="50" relative="1" as="geometry">
            <mxPoint x="220" y="750" as="sourcePoint" />
            <mxPoint x="220" y="630" as="targetPoint" />
          </mxGeometry>
        </mxCell>
        <mxCell id="_vvKJYAs0xgq3MKUHlG_-4" value="lista_indice" style="rounded=0;whiteSpace=wrap;html=1;fontSize=16;" vertex="1" parent="WIyWlLk6GJQsqaUBKTNV-1">
          <mxGeometry x="165" y="630" width="110" height="40" as="geometry" />
        </mxCell>
        <mxCell id="_vvKJYAs0xgq3MKUHlG_-5" value="" style="endArrow=classic;html=1;rounded=0;fontSize=12;startSize=8;endSize=8;curved=1;" edge="1" parent="WIyWlLk6GJQsqaUBKTNV-1" source="_vvKJYAs0xgq3MKUHlG_-4">
          <mxGeometry width="50" height="50" relative="1" as="geometry">
            <mxPoint x="220" y="820" as="sourcePoint" />
            <mxPoint x="220" y="710" as="targetPoint" />
          </mxGeometry>
        </mxCell>
        <mxCell id="_vvKJYAs0xgq3MKUHlG_-6" value="lista_psw" style="rounded=0;whiteSpace=wrap;html=1;fontSize=16;" vertex="1" parent="WIyWlLk6GJQsqaUBKTNV-1">
          <mxGeometry x="165" y="710" width="100" height="40" as="geometry" />
        </mxCell>
        <mxCell id="_vvKJYAs0xgq3MKUHlG_-8" value="" style="endArrow=classic;html=1;rounded=0;fontSize=12;startSize=8;endSize=8;curved=1;exitX=0.5;exitY=1;exitDx=0;exitDy=0;entryX=0.5;entryY=0;entryDx=0;entryDy=0;" edge="1" parent="WIyWlLk6GJQsqaUBKTNV-1" source="LtnXMF4uBp7m2lb51uMG-2" target="LtnXMF4uBp7m2lb51uMG-6">
          <mxGeometry width="50" height="50" relative="1" as="geometry">
            <mxPoint x="270" y="390" as="sourcePoint" />
            <mxPoint x="320" y="340" as="targetPoint" />
          </mxGeometry>
        </mxCell>
        <mxCell id="_vvKJYAs0xgq3MKUHlG_-9" value="" style="endArrow=classic;html=1;rounded=0;fontSize=12;startSize=8;endSize=8;curved=1;exitX=0.5;exitY=1;exitDx=0;exitDy=0;" edge="1" parent="WIyWlLk6GJQsqaUBKTNV-1" source="LtnXMF4uBp7m2lb51uMG-6">
          <mxGeometry width="50" height="50" relative="1" as="geometry">
            <mxPoint x="220" y="490" as="sourcePoint" />
            <mxPoint x="220" y="470" as="targetPoint" />
          </mxGeometry>
        </mxCell>
        <mxCell id="47L1H4vjL2G08oFO6A4H-0" value="" style="endArrow=classic;html=1;rounded=0;fontSize=12;startSize=8;endSize=8;curved=1;exitX=0.5;exitY=1;exitDx=0;exitDy=0;" edge="1" parent="WIyWlLk6GJQsqaUBKTNV-1" source="_vvKJYAs0xgq3MKUHlG_-6">
          <mxGeometry width="50" height="50" relative="1" as="geometry">
            <mxPoint x="250" y="520" as="sourcePoint" />
            <mxPoint x="215" y="810" as="targetPoint" />
          </mxGeometry>
        </mxCell>
        <mxCell id="_KYdaBVdJaQWid0yYwRB-0" value="maiuscole=&quot;&quot;" style="rounded=0;whiteSpace=wrap;html=1;fontSize=16;" vertex="1" parent="WIyWlLk6GJQsqaUBKTNV-1">
          <mxGeometry x="160" y="810" width="110" height="50" as="geometry" />
        </mxCell>
        <mxCell id="_KYdaBVdJaQWid0yYwRB-1" value="minuscole=&quot;&quot;" style="rounded=0;whiteSpace=wrap;html=1;fontSize=16;" vertex="1" parent="WIyWlLk6GJQsqaUBKTNV-1">
          <mxGeometry x="155" y="900" width="120" height="50" as="geometry" />
        </mxCell>
        <mxCell id="_KYdaBVdJaQWid0yYwRB-2" value="numeri=&quot;&quot;" style="rounded=0;whiteSpace=wrap;html=1;fontSize=16;" vertex="1" parent="WIyWlLk6GJQsqaUBKTNV-1">
          <mxGeometry x="167.5" y="1000" width="95" height="40" as="geometry" />
        </mxCell>
        <mxCell id="_KYdaBVdJaQWid0yYwRB-3" value="simboli=&quot;&quot;" style="rounded=0;whiteSpace=wrap;html=1;fontSize=16;" vertex="1" parent="WIyWlLk6GJQsqaUBKTNV-1">
          <mxGeometry x="170" y="1090" width="90" height="40" as="geometry" />
        </mxCell>
        <mxCell id="_KYdaBVdJaQWid0yYwRB-4" value="rimuovi=&quot;&quot;" style="rounded=0;whiteSpace=wrap;html=1;fontSize=16;" vertex="1" parent="WIyWlLk6GJQsqaUBKTNV-1">
          <mxGeometry x="165" y="1170" width="100" height="40" as="geometry" />
        </mxCell>
        <mxCell id="_KYdaBVdJaQWid0yYwRB-5" value="rimuovi_carattere=&quot;&quot;" style="rounded=0;whiteSpace=wrap;html=1;fontSize=16;" vertex="1" parent="WIyWlLk6GJQsqaUBKTNV-1">
          <mxGeometry x="135" y="1250" width="160" height="80" as="geometry" />
        </mxCell>
        <mxCell id="_KYdaBVdJaQWid0yYwRB-6" value="password=&quot;&quot;" style="rounded=0;whiteSpace=wrap;html=1;fontSize=16;" vertex="1" parent="WIyWlLk6GJQsqaUBKTNV-1">
          <mxGeometry x="155" y="1350" width="125" height="60" as="geometry" />
        </mxCell>
        <mxCell id="_KYdaBVdJaQWid0yYwRB-7" value="" style="endArrow=classic;html=1;rounded=0;fontSize=12;startSize=8;endSize=8;curved=1;" edge="1" parent="WIyWlLk6GJQsqaUBKTNV-1" source="_KYdaBVdJaQWid0yYwRB-0">
          <mxGeometry width="50" height="50" relative="1" as="geometry">
            <mxPoint x="210" y="1100" as="sourcePoint" />
            <mxPoint x="215" y="900" as="targetPoint" />
          </mxGeometry>
        </mxCell>
        <mxCell id="_KYdaBVdJaQWid0yYwRB-9" value="" style="endArrow=classic;html=1;rounded=0;fontSize=12;startSize=8;endSize=8;curved=1;exitX=0.5;exitY=1;exitDx=0;exitDy=0;" edge="1" parent="WIyWlLk6GJQsqaUBKTNV-1" source="_KYdaBVdJaQWid0yYwRB-1">
          <mxGeometry width="50" height="50" relative="1" as="geometry">
            <mxPoint x="210" y="1200" as="sourcePoint" />
            <mxPoint x="215" y="1000" as="targetPoint" />
          </mxGeometry>
        </mxCell>
        <mxCell id="_KYdaBVdJaQWid0yYwRB-10" value="" style="endArrow=classic;html=1;rounded=0;fontSize=12;startSize=8;endSize=8;curved=1;exitX=0.5;exitY=1;exitDx=0;exitDy=0;" edge="1" parent="WIyWlLk6GJQsqaUBKTNV-1" source="_KYdaBVdJaQWid0yYwRB-2">
          <mxGeometry width="50" height="50" relative="1" as="geometry">
            <mxPoint x="210" y="1200" as="sourcePoint" />
            <mxPoint x="215" y="1090" as="targetPoint" />
          </mxGeometry>
        </mxCell>
        <mxCell id="_KYdaBVdJaQWid0yYwRB-11" value="" style="endArrow=classic;html=1;rounded=0;fontSize=12;startSize=8;endSize=8;curved=1;exitX=0.5;exitY=1;exitDx=0;exitDy=0;" edge="1" parent="WIyWlLk6GJQsqaUBKTNV-1" source="_KYdaBVdJaQWid0yYwRB-3">
          <mxGeometry width="50" height="50" relative="1" as="geometry">
            <mxPoint x="210" y="1350" as="sourcePoint" />
            <mxPoint x="215" y="1170" as="targetPoint" />
          </mxGeometry>
        </mxCell>
        <mxCell id="_KYdaBVdJaQWid0yYwRB-12" value="" style="endArrow=classic;html=1;rounded=0;fontSize=12;startSize=8;endSize=8;curved=1;exitX=0.5;exitY=1;exitDx=0;exitDy=0;entryX=0.5;entryY=0;entryDx=0;entryDy=0;" edge="1" parent="WIyWlLk6GJQsqaUBKTNV-1" source="_KYdaBVdJaQWid0yYwRB-4" target="_KYdaBVdJaQWid0yYwRB-5">
          <mxGeometry width="50" height="50" relative="1" as="geometry">
            <mxPoint x="210" y="1240" as="sourcePoint" />
            <mxPoint x="260" y="1190" as="targetPoint" />
          </mxGeometry>
        </mxCell>
        <mxCell id="_KYdaBVdJaQWid0yYwRB-13" value="" style="endArrow=classic;html=1;rounded=0;fontSize=12;startSize=8;endSize=8;curved=1;exitX=0.5;exitY=1;exitDx=0;exitDy=0;" edge="1" parent="WIyWlLk6GJQsqaUBKTNV-1" source="_KYdaBVdJaQWid0yYwRB-5">
          <mxGeometry width="50" height="50" relative="1" as="geometry">
            <mxPoint x="210" y="1350" as="sourcePoint" />
            <mxPoint x="215" y="1350" as="targetPoint" />
          </mxGeometry>
        </mxCell>
        <mxCell id="_KYdaBVdJaQWid0yYwRB-14" value="" style="endArrow=classic;html=1;rounded=0;fontSize=12;startSize=8;endSize=8;curved=1;exitX=0.5;exitY=1;exitDx=0;exitDy=0;" edge="1" parent="WIyWlLk6GJQsqaUBKTNV-1" source="_KYdaBVdJaQWid0yYwRB-6" target="_KYdaBVdJaQWid0yYwRB-15">
          <mxGeometry width="50" height="50" relative="1" as="geometry">
            <mxPoint x="210" y="1350" as="sourcePoint" />
            <mxPoint x="215" y="1430" as="targetPoint" />
          </mxGeometry>
        </mxCell>
        <mxCell id="_KYdaBVdJaQWid0yYwRB-15" value="carattere=&quot;&quot;" style="rounded=0;whiteSpace=wrap;html=1;fontSize=16;" vertex="1" parent="WIyWlLk6GJQsqaUBKTNV-1">
          <mxGeometry x="170" y="1440" width="95" height="30" as="geometry" />
        </mxCell>
        <mxCell id="_KYdaBVdJaQWid0yYwRB-16" value="errore_1=&quot;Errore: non hai digitato come richiesto, riprova.&quot;" style="rounded=0;whiteSpace=wrap;html=1;fontSize=16;" vertex="1" parent="WIyWlLk6GJQsqaUBKTNV-1">
          <mxGeometry x="120" y="1500" width="200" height="110" as="geometry" />
        </mxCell>
        <mxCell id="_KYdaBVdJaQWid0yYwRB-17" value="" style="endArrow=classic;html=1;rounded=0;fontSize=12;startSize=8;endSize=8;curved=1;exitX=0.5;exitY=1;exitDx=0;exitDy=0;" edge="1" parent="WIyWlLk6GJQsqaUBKTNV-1" source="_KYdaBVdJaQWid0yYwRB-15">
          <mxGeometry width="50" height="50" relative="1" as="geometry">
            <mxPoint x="202.5" y="1540" as="sourcePoint" />
            <mxPoint x="217.5" y="1500" as="targetPoint" />
          </mxGeometry>
        </mxCell>
        <mxCell id="_KYdaBVdJaQWid0yYwRB-18" style="edgeStyle=none;curved=1;rounded=0;orthogonalLoop=1;jettySize=auto;html=1;exitX=0.75;exitY=1;exitDx=0;exitDy=0;fontSize=12;startSize=8;endSize=8;" edge="1" parent="WIyWlLk6GJQsqaUBKTNV-1">
          <mxGeometry relative="1" as="geometry">
            <mxPoint x="267.5" y="1610" as="sourcePoint" />
            <mxPoint x="267.5" y="1610" as="targetPoint" />
          </mxGeometry>
        </mxCell>
        <mxCell id="_KYdaBVdJaQWid0yYwRB-19" value="attenzione=&quot;La tua password NON è sicura.&quot;" style="rounded=0;whiteSpace=wrap;html=1;fontSize=16;" vertex="1" parent="WIyWlLk6GJQsqaUBKTNV-1">
          <mxGeometry x="147.5" y="1810" width="145" height="100" as="geometry" />
        </mxCell>
        <mxCell id="_KYdaBVdJaQWid0yYwRB-20" value="" style="endArrow=classic;html=1;rounded=0;fontSize=12;startSize=8;endSize=8;curved=1;exitX=0.5;exitY=1;exitDx=0;exitDy=0;entryX=0.5;entryY=0;entryDx=0;entryDy=0;" edge="1" parent="WIyWlLk6GJQsqaUBKTNV-1" source="_KYdaBVdJaQWid0yYwRB-19" target="_KYdaBVdJaQWid0yYwRB-21">
          <mxGeometry width="50" height="50" relative="1" as="geometry">
            <mxPoint x="-82.5" y="2309" as="sourcePoint" />
            <mxPoint x="-37.5" y="2259" as="targetPoint" />
          </mxGeometry>
        </mxCell>
        <mxCell id="_KYdaBVdJaQWid0yYwRB-21" value="consiglio=&quot;Per rendere la password più sicura inserisci anche:&quot;" style="rounded=0;whiteSpace=wrap;html=1;fontSize=16;" vertex="1" parent="WIyWlLk6GJQsqaUBKTNV-1">
          <mxGeometry x="107.5" y="2000" width="222.5" height="70" as="geometry" />
        </mxCell>
        <mxCell id="_KYdaBVdJaQWid0yYwRB-23" value="errore_2=&quot;Errore. Riprova&quot;" style="rounded=0;whiteSpace=wrap;html=1;fontSize=16;" vertex="1" parent="WIyWlLk6GJQsqaUBKTNV-1">
          <mxGeometry x="135" y="1680" width="170" height="80" as="geometry" />
        </mxCell>
        <mxCell id="_KYdaBVdJaQWid0yYwRB-24" value="" style="endArrow=classic;html=1;rounded=0;fontSize=12;startSize=8;endSize=8;curved=1;exitX=0.5;exitY=1;exitDx=0;exitDy=0;" edge="1" parent="WIyWlLk6GJQsqaUBKTNV-1" source="_KYdaBVdJaQWid0yYwRB-23">
          <mxGeometry width="50" height="50" relative="1" as="geometry">
            <mxPoint x="245" y="1860" as="sourcePoint" />
            <mxPoint x="220" y="1810" as="targetPoint" />
          </mxGeometry>
        </mxCell>
        <mxCell id="_KYdaBVdJaQWid0yYwRB-25" value="" style="endArrow=classic;html=1;rounded=0;fontSize=12;startSize=8;endSize=8;curved=1;exitX=0.5;exitY=1;exitDx=0;exitDy=0;" edge="1" parent="WIyWlLk6GJQsqaUBKTNV-1" source="_KYdaBVdJaQWid0yYwRB-16">
          <mxGeometry width="50" height="50" relative="1" as="geometry">
            <mxPoint x="332.5" y="1790" as="sourcePoint" />
            <mxPoint x="220" y="1680" as="targetPoint" />
            <Array as="points" />
          </mxGeometry>
        </mxCell>
        <mxCell id="_KYdaBVdJaQWid0yYwRB-26" value="O: &quot;Benvenuto!&quot;" style="shape=parallelogram;perimeter=parallelogramPerimeter;whiteSpace=wrap;html=1;fixedSize=1;fontSize=16;" vertex="1" parent="WIyWlLk6GJQsqaUBKTNV-1">
          <mxGeometry x="137" y="2100" width="163.5" height="40" as="geometry" />
        </mxCell>
        <mxCell id="_KYdaBVdJaQWid0yYwRB-27" value="" style="endArrow=classic;html=1;rounded=0;fontSize=12;startSize=8;endSize=8;curved=1;exitX=0.5;exitY=1;exitDx=0;exitDy=0;entryX=0.5;entryY=0;entryDx=0;entryDy=0;" edge="1" parent="WIyWlLk6GJQsqaUBKTNV-1" source="_KYdaBVdJaQWid0yYwRB-21" target="_KYdaBVdJaQWid0yYwRB-26">
          <mxGeometry width="50" height="50" relative="1" as="geometry">
            <mxPoint x="220" y="2220" as="sourcePoint" />
            <mxPoint x="220" y="2100" as="targetPoint" />
          </mxGeometry>
        </mxCell>
        <mxCell id="_KYdaBVdJaQWid0yYwRB-29" value="O: &quot;Se vuoi generare una password, digita &#39;G&#39;.&quot;" style="shape=parallelogram;perimeter=parallelogramPerimeter;whiteSpace=wrap;html=1;fixedSize=1;fontSize=16;" vertex="1" parent="WIyWlLk6GJQsqaUBKTNV-1">
          <mxGeometry x="103.75" y="2180" width="230" height="80" as="geometry" />
        </mxCell>
        <mxCell id="_KYdaBVdJaQWid0yYwRB-30" value="" style="endArrow=classic;html=1;rounded=0;fontSize=12;startSize=8;endSize=8;curved=1;exitX=0.5;exitY=1;exitDx=0;exitDy=0;entryX=0.5;entryY=0;entryDx=0;entryDy=0;" edge="1" parent="WIyWlLk6GJQsqaUBKTNV-1" source="_KYdaBVdJaQWid0yYwRB-26" target="_KYdaBVdJaQWid0yYwRB-29">
          <mxGeometry width="50" height="50" relative="1" as="geometry">
            <mxPoint x="260" y="2200" as="sourcePoint" />
            <mxPoint x="310" y="2150" as="targetPoint" />
          </mxGeometry>
        </mxCell>
        <mxCell id="_KYdaBVdJaQWid0yYwRB-32" value="O: &quot;Se vuoi verificare la sicurezza di una password, digita &#39;V&#39;.&quot;" style="shape=parallelogram;perimeter=parallelogramPerimeter;whiteSpace=wrap;html=1;fixedSize=1;fontSize=16;" vertex="1" parent="WIyWlLk6GJQsqaUBKTNV-1">
          <mxGeometry x="55" y="2310" width="330" height="90" as="geometry" />
        </mxCell>
        <mxCell id="_KYdaBVdJaQWid0yYwRB-33" value="" style="endArrow=classic;html=1;rounded=0;fontSize=12;startSize=8;endSize=8;curved=1;exitX=0.5;exitY=1;exitDx=0;exitDy=0;" edge="1" parent="WIyWlLk6GJQsqaUBKTNV-1" source="_KYdaBVdJaQWid0yYwRB-29">
          <mxGeometry width="50" height="50" relative="1" as="geometry">
            <mxPoint x="190" y="2330" as="sourcePoint" />
            <mxPoint x="219" y="2310" as="targetPoint" />
          </mxGeometry>
        </mxCell>
        <mxCell id="_KYdaBVdJaQWid0yYwRB-34" value="I: input_utente" style="shape=parallelogram;perimeter=parallelogramPerimeter;whiteSpace=wrap;html=1;fixedSize=1;fontSize=16;" vertex="1" parent="WIyWlLk6GJQsqaUBKTNV-1">
          <mxGeometry x="127.5" y="2440" width="180" height="50" as="geometry" />
        </mxCell>
        <mxCell id="_KYdaBVdJaQWid0yYwRB-35" value="" style="endArrow=classic;html=1;rounded=0;fontSize=12;startSize=8;endSize=8;curved=1;exitX=0.5;exitY=1;exitDx=0;exitDy=0;" edge="1" parent="WIyWlLk6GJQsqaUBKTNV-1" source="_KYdaBVdJaQWid0yYwRB-32">
          <mxGeometry width="50" height="50" relative="1" as="geometry">
            <mxPoint x="370" y="2330" as="sourcePoint" />
            <mxPoint x="220" y="2440" as="targetPoint" />
          </mxGeometry>
        </mxCell>
        <mxCell id="_KYdaBVdJaQWid0yYwRB-36" value="input_utente!=&quot;G&quot; &lt;br&gt;and&amp;nbsp;&lt;br&gt;input_utente!=&quot;V&quot;" style="rhombus;whiteSpace=wrap;html=1;fontSize=16;" vertex="1" parent="WIyWlLk6GJQsqaUBKTNV-1">
          <mxGeometry x="92" y="2520" width="251" height="120" as="geometry" />
        </mxCell>
        <mxCell id="_KYdaBVdJaQWid0yYwRB-38" value="" style="endArrow=classic;html=1;rounded=0;fontSize=12;startSize=8;endSize=8;curved=1;exitX=0.5;exitY=1;exitDx=0;exitDy=0;entryX=0.5;entryY=0;entryDx=0;entryDy=0;" edge="1" parent="WIyWlLk6GJQsqaUBKTNV-1" source="_KYdaBVdJaQWid0yYwRB-34" target="_KYdaBVdJaQWid0yYwRB-36">
          <mxGeometry width="50" height="50" relative="1" as="geometry">
            <mxPoint x="190" y="2550" as="sourcePoint" />
            <mxPoint x="240" y="2500" as="targetPoint" />
          </mxGeometry>
        </mxCell>
        <mxCell id="_KYdaBVdJaQWid0yYwRB-39" value="" style="endArrow=none;html=1;rounded=0;fontSize=12;startSize=8;endSize=8;curved=1;entryX=1;entryY=0.5;entryDx=0;entryDy=0;" edge="1" parent="WIyWlLk6GJQsqaUBKTNV-1" target="_KYdaBVdJaQWid0yYwRB-36">
          <mxGeometry width="50" height="50" relative="1" as="geometry">
            <mxPoint x="470" y="2580" as="sourcePoint" />
            <mxPoint x="260" y="2570" as="targetPoint" />
          </mxGeometry>
        </mxCell>
        <mxCell id="_KYdaBVdJaQWid0yYwRB-40" value="VERO" style="text;html=1;strokeColor=none;fillColor=none;align=center;verticalAlign=middle;whiteSpace=wrap;rounded=0;fontSize=16;" vertex="1" parent="WIyWlLk6GJQsqaUBKTNV-1">
          <mxGeometry x="370" y="2550" width="60" height="30" as="geometry" />
        </mxCell>
        <mxCell id="_KYdaBVdJaQWid0yYwRB-41" value="" style="endArrow=classic;html=1;rounded=0;fontSize=12;startSize=8;endSize=8;curved=1;" edge="1" parent="WIyWlLk6GJQsqaUBKTNV-1">
          <mxGeometry width="50" height="50" relative="1" as="geometry">
            <mxPoint x="470" y="2580" as="sourcePoint" />
            <mxPoint x="470" y="2640" as="targetPoint" />
          </mxGeometry>
        </mxCell>
        <mxCell id="_KYdaBVdJaQWid0yYwRB-42" value="O: errore_1" style="shape=parallelogram;perimeter=parallelogramPerimeter;whiteSpace=wrap;html=1;fixedSize=1;fontSize=16;" vertex="1" parent="WIyWlLk6GJQsqaUBKTNV-1">
          <mxGeometry x="400" y="2640" width="120" height="60" as="geometry" />
        </mxCell>
        <mxCell id="_KYdaBVdJaQWid0yYwRB-43" value="" style="endArrow=classic;html=1;rounded=0;fontSize=12;startSize=8;endSize=8;curved=1;exitX=0.5;exitY=1;exitDx=0;exitDy=0;" edge="1" parent="WIyWlLk6GJQsqaUBKTNV-1" source="_KYdaBVdJaQWid0yYwRB-42">
          <mxGeometry width="50" height="50" relative="1" as="geometry">
            <mxPoint x="530" y="2710" as="sourcePoint" />
            <mxPoint x="460" y="2750" as="targetPoint" />
          </mxGeometry>
        </mxCell>
        <mxCell id="_KYdaBVdJaQWid0yYwRB-44" value="FINE" style="ellipse;whiteSpace=wrap;html=1;fontSize=16;" vertex="1" parent="WIyWlLk6GJQsqaUBKTNV-1">
          <mxGeometry x="400" y="2750" width="120" height="80" as="geometry" />
        </mxCell>
        <mxCell id="_KYdaBVdJaQWid0yYwRB-45" value="" style="endArrow=none;html=1;rounded=0;fontSize=12;startSize=8;endSize=8;curved=1;entryX=0;entryY=0.5;entryDx=0;entryDy=0;" edge="1" parent="WIyWlLk6GJQsqaUBKTNV-1" target="_KYdaBVdJaQWid0yYwRB-36">
          <mxGeometry width="50" height="50" relative="1" as="geometry">
            <mxPoint y="2580" as="sourcePoint" />
            <mxPoint x="90" y="2580" as="targetPoint" />
          </mxGeometry>
        </mxCell>
        <mxCell id="_KYdaBVdJaQWid0yYwRB-46" value="" style="endArrow=classic;html=1;rounded=0;fontSize=12;startSize=8;endSize=8;curved=1;entryX=0.5;entryY=0;entryDx=0;entryDy=0;" edge="1" parent="WIyWlLk6GJQsqaUBKTNV-1" target="_KYdaBVdJaQWid0yYwRB-48">
          <mxGeometry width="50" height="50" relative="1" as="geometry">
            <mxPoint x="4" y="2580" as="sourcePoint" />
            <mxPoint y="2660" as="targetPoint" />
          </mxGeometry>
        </mxCell>
        <mxCell id="_KYdaBVdJaQWid0yYwRB-47" value="FALSO" style="text;html=1;strokeColor=none;fillColor=none;align=center;verticalAlign=middle;whiteSpace=wrap;rounded=0;fontSize=16;" vertex="1" parent="WIyWlLk6GJQsqaUBKTNV-1">
          <mxGeometry x="32" y="2550" width="60" height="30" as="geometry" />
        </mxCell>
        <mxCell id="_KYdaBVdJaQWid0yYwRB-48" value="input_utente==&quot;G&quot;" style="rhombus;whiteSpace=wrap;html=1;fontSize=16;" vertex="1" parent="WIyWlLk6GJQsqaUBKTNV-1">
          <mxGeometry x="-96.25" y="2660" width="200" height="120" as="geometry" />
        </mxCell>
        <mxCell id="_KYdaBVdJaQWid0yYwRB-49" value="" style="endArrow=none;html=1;rounded=0;fontSize=12;startSize=8;endSize=8;curved=1;entryX=0;entryY=0.5;entryDx=0;entryDy=0;" edge="1" parent="WIyWlLk6GJQsqaUBKTNV-1" target="_KYdaBVdJaQWid0yYwRB-48">
          <mxGeometry width="50" height="50" relative="1" as="geometry">
            <mxPoint x="-330" y="2720" as="sourcePoint" />
            <mxPoint x="-150" y="2740" as="targetPoint" />
          </mxGeometry>
        </mxCell>
        <mxCell id="_KYdaBVdJaQWid0yYwRB-50" value="VERO" style="text;html=1;strokeColor=none;fillColor=none;align=center;verticalAlign=middle;whiteSpace=wrap;rounded=0;fontSize=16;" vertex="1" parent="WIyWlLk6GJQsqaUBKTNV-1">
          <mxGeometry x="-220" y="2690" width="60" height="30" as="geometry" />
        </mxCell>
        <mxCell id="_KYdaBVdJaQWid0yYwRB-51" value="" style="endArrow=classic;html=1;rounded=0;fontSize=12;startSize=8;endSize=8;curved=1;" edge="1" parent="WIyWlLk6GJQsqaUBKTNV-1">
          <mxGeometry width="50" height="50" relative="1" as="geometry">
            <mxPoint x="-330" y="2720" as="sourcePoint" />
            <mxPoint x="-330" y="2800" as="targetPoint" />
          </mxGeometry>
        </mxCell>
        <mxCell id="_KYdaBVdJaQWid0yYwRB-52" value="O: &quot;Ottimo, hai scelto di generare una password.&quot;" style="shape=parallelogram;perimeter=parallelogramPerimeter;whiteSpace=wrap;html=1;fixedSize=1;fontSize=16;" vertex="1" parent="WIyWlLk6GJQsqaUBKTNV-1">
          <mxGeometry x="-440" y="2800" width="230" height="80" as="geometry" />
        </mxCell>
        <mxCell id="_KYdaBVdJaQWid0yYwRB-53" value="O: &quot;Ora ti verrà posta una serie di domande per configurare al meglio la tua password.&quot;" style="shape=parallelogram;perimeter=parallelogramPerimeter;whiteSpace=wrap;html=1;fixedSize=1;fontSize=16;" vertex="1" parent="WIyWlLk6GJQsqaUBKTNV-1">
          <mxGeometry x="-515" y="2923" width="380" height="80" as="geometry" />
        </mxCell>
        <mxCell id="_KYdaBVdJaQWid0yYwRB-54" value="" style="endArrow=classic;html=1;rounded=0;fontSize=12;startSize=8;endSize=8;curved=1;exitX=0.5;exitY=1;exitDx=0;exitDy=0;entryX=0.5;entryY=0;entryDx=0;entryDy=0;" edge="1" parent="WIyWlLk6GJQsqaUBKTNV-1" source="_KYdaBVdJaQWid0yYwRB-52" target="_KYdaBVdJaQWid0yYwRB-53">
          <mxGeometry width="50" height="50" relative="1" as="geometry">
            <mxPoint x="-380" y="2940" as="sourcePoint" />
            <mxPoint x="-330" y="2890" as="targetPoint" />
          </mxGeometry>
        </mxCell>
        <mxCell id="_KYdaBVdJaQWid0yYwRB-55" value="" style="endArrow=classic;html=1;rounded=0;fontSize=12;startSize=8;endSize=8;curved=1;exitX=0.5;exitY=1;exitDx=0;exitDy=0;" edge="1" parent="WIyWlLk6GJQsqaUBKTNV-1" source="_KYdaBVdJaQWid0yYwRB-53">
          <mxGeometry width="50" height="50" relative="1" as="geometry">
            <mxPoint x="-350" y="3100" as="sourcePoint" />
            <mxPoint x="-325" y="3050" as="targetPoint" />
          </mxGeometry>
        </mxCell>
        <mxCell id="_KYdaBVdJaQWid0yYwRB-56" value="O: &quot;Per rispondere digita &#39;S&#39; o &#39;N&#39;.&quot;" style="shape=parallelogram;perimeter=parallelogramPerimeter;whiteSpace=wrap;html=1;fixedSize=1;fontSize=16;" vertex="1" parent="WIyWlLk6GJQsqaUBKTNV-1">
          <mxGeometry x="-470" y="3050" width="290" height="50" as="geometry" />
        </mxCell>
        <mxCell id="_KYdaBVdJaQWid0yYwRB-57" value="" style="endArrow=classic;html=1;rounded=0;fontSize=12;startSize=8;endSize=8;curved=1;exitX=0.5;exitY=1;exitDx=0;exitDy=0;" edge="1" parent="WIyWlLk6GJQsqaUBKTNV-1" source="_KYdaBVdJaQWid0yYwRB-56">
          <mxGeometry width="50" height="50" relative="1" as="geometry">
            <mxPoint x="-320" y="3230" as="sourcePoint" />
            <mxPoint x="-325" y="3150" as="targetPoint" />
          </mxGeometry>
        </mxCell>
        <mxCell id="_KYdaBVdJaQWid0yYwRB-58" value="I: lunghezza" style="shape=parallelogram;perimeter=parallelogramPerimeter;whiteSpace=wrap;html=1;fixedSize=1;fontSize=16;" vertex="1" parent="WIyWlLk6GJQsqaUBKTNV-1">
          <mxGeometry x="-385" y="3150" width="120" height="60" as="geometry" />
        </mxCell>
        <mxCell id="_KYdaBVdJaQWid0yYwRB-59" value="" style="endArrow=classic;html=1;rounded=0;fontSize=12;startSize=8;endSize=8;curved=1;exitX=0.5;exitY=1;exitDx=0;exitDy=0;" edge="1" parent="WIyWlLk6GJQsqaUBKTNV-1" source="_KYdaBVdJaQWid0yYwRB-58">
          <mxGeometry width="50" height="50" relative="1" as="geometry">
            <mxPoint x="-350" y="3320" as="sourcePoint" />
            <mxPoint x="-325" y="3260" as="targetPoint" />
          </mxGeometry>
        </mxCell>
        <mxCell id="_KYdaBVdJaQWid0yYwRB-60" value="lunghezza.isnumeric()==False" style="rhombus;whiteSpace=wrap;html=1;fontSize=16;" vertex="1" parent="WIyWlLk6GJQsqaUBKTNV-1">
          <mxGeometry x="-482.5" y="3260" width="315" height="120" as="geometry" />
        </mxCell>
        <mxCell id="_KYdaBVdJaQWid0yYwRB-61" value="" style="endArrow=none;html=1;rounded=0;fontSize=12;startSize=8;endSize=8;curved=1;exitX=1;exitY=0.5;exitDx=0;exitDy=0;" edge="1" parent="WIyWlLk6GJQsqaUBKTNV-1" source="_KYdaBVdJaQWid0yYwRB-60">
          <mxGeometry width="50" height="50" relative="1" as="geometry">
            <mxPoint x="-120" y="3360" as="sourcePoint" />
            <mxPoint x="-40" y="3320" as="targetPoint" />
          </mxGeometry>
        </mxCell>
        <mxCell id="_KYdaBVdJaQWid0yYwRB-62" value="" style="endArrow=classic;html=1;rounded=0;fontSize=12;startSize=8;endSize=8;curved=1;" edge="1" parent="WIyWlLk6GJQsqaUBKTNV-1">
          <mxGeometry width="50" height="50" relative="1" as="geometry">
            <mxPoint x="-40" y="3320" as="sourcePoint" />
            <mxPoint x="-40" y="3380" as="targetPoint" />
          </mxGeometry>
        </mxCell>
        <mxCell id="_KYdaBVdJaQWid0yYwRB-63" value="VERO" style="text;html=1;strokeColor=none;fillColor=none;align=center;verticalAlign=middle;whiteSpace=wrap;rounded=0;fontSize=16;" vertex="1" parent="WIyWlLk6GJQsqaUBKTNV-1">
          <mxGeometry x="-130" y="3290" width="60" height="30" as="geometry" />
        </mxCell>
        <mxCell id="_KYdaBVdJaQWid0yYwRB-65" value="O: errore_1" style="shape=parallelogram;perimeter=parallelogramPerimeter;whiteSpace=wrap;html=1;fixedSize=1;fontSize=16;" vertex="1" parent="WIyWlLk6GJQsqaUBKTNV-1">
          <mxGeometry x="-100" y="3380" width="120" height="60" as="geometry" />
        </mxCell>
      </root>
    </mxGraphModel>
  </diagram>
  <diagram name="Variabili str" id="3CADW21btByqIgjhEIIT">
    <mxGraphModel dx="947" dy="1056" grid="1" gridSize="10" guides="1" tooltips="1" connect="1" arrows="1" fold="1" page="1" pageScale="1" pageWidth="827" pageHeight="1169" math="0" shadow="0">
      <root>
        <mxCell id="1gQVhbo7qecBlJHeuTmW-0" />
        <mxCell id="1gQVhbo7qecBlJHeuTmW-1" parent="1gQVhbo7qecBlJHeuTmW-0" />
        <mxCell id="1gQVhbo7qecBlJHeuTmW-3" value="maiuscole=&quot;&quot;" style="rounded=0;whiteSpace=wrap;html=1;fontSize=16;" vertex="1" parent="1gQVhbo7qecBlJHeuTmW-1">
          <mxGeometry x="210" y="120" width="110" height="50" as="geometry" />
        </mxCell>
        <mxCell id="1gQVhbo7qecBlJHeuTmW-4" value="minuscole=&quot;&quot;" style="rounded=0;whiteSpace=wrap;html=1;fontSize=16;" vertex="1" parent="1gQVhbo7qecBlJHeuTmW-1">
          <mxGeometry x="205" y="210" width="120" height="50" as="geometry" />
        </mxCell>
        <mxCell id="1gQVhbo7qecBlJHeuTmW-8" value="numeri=&quot;&quot;" style="rounded=0;whiteSpace=wrap;html=1;fontSize=16;" vertex="1" parent="1gQVhbo7qecBlJHeuTmW-1">
          <mxGeometry x="217.5" y="310" width="95" height="40" as="geometry" />
        </mxCell>
        <mxCell id="1gQVhbo7qecBlJHeuTmW-9" value="simboli=&quot;&quot;" style="rounded=0;whiteSpace=wrap;html=1;fontSize=16;" vertex="1" parent="1gQVhbo7qecBlJHeuTmW-1">
          <mxGeometry x="220" y="400" width="90" height="40" as="geometry" />
        </mxCell>
        <mxCell id="1gQVhbo7qecBlJHeuTmW-11" value="rimuovi=&quot;&quot;" style="rounded=0;whiteSpace=wrap;html=1;fontSize=16;" vertex="1" parent="1gQVhbo7qecBlJHeuTmW-1">
          <mxGeometry x="215" y="480" width="100" height="40" as="geometry" />
        </mxCell>
        <mxCell id="1gQVhbo7qecBlJHeuTmW-13" value="rimuovi_carattere=&quot;&quot;" style="rounded=0;whiteSpace=wrap;html=1;fontSize=16;" vertex="1" parent="1gQVhbo7qecBlJHeuTmW-1">
          <mxGeometry x="185" y="560" width="160" height="80" as="geometry" />
        </mxCell>
        <mxCell id="1gQVhbo7qecBlJHeuTmW-15" value="password=&quot;&quot;" style="rounded=0;whiteSpace=wrap;html=1;fontSize=16;" vertex="1" parent="1gQVhbo7qecBlJHeuTmW-1">
          <mxGeometry x="205" y="660" width="125" height="60" as="geometry" />
        </mxCell>
        <mxCell id="lW0XTbSAqNNgikckN9dO-1" value="" style="endArrow=classic;html=1;rounded=0;fontSize=12;startSize=8;endSize=8;curved=1;exitX=0.5;exitY=1;exitDx=0;exitDy=0;" edge="1" parent="1gQVhbo7qecBlJHeuTmW-1" source="1gQVhbo7qecBlJHeuTmW-3">
          <mxGeometry width="50" height="50" relative="1" as="geometry">
            <mxPoint x="260" y="410" as="sourcePoint" />
            <mxPoint x="265" y="210" as="targetPoint" />
          </mxGeometry>
        </mxCell>
        <mxCell id="lW0XTbSAqNNgikckN9dO-2" value="" style="endArrow=classic;html=1;rounded=0;fontSize=12;startSize=8;endSize=8;curved=1;entryX=0.5;entryY=0;entryDx=0;entryDy=0;" edge="1" parent="1gQVhbo7qecBlJHeuTmW-1" target="1gQVhbo7qecBlJHeuTmW-3">
          <mxGeometry width="50" height="50" relative="1" as="geometry">
            <mxPoint x="265" y="70" as="sourcePoint" />
            <mxPoint x="310" y="360" as="targetPoint" />
          </mxGeometry>
        </mxCell>
        <mxCell id="lW0XTbSAqNNgikckN9dO-3" value="" style="endArrow=classic;html=1;rounded=0;fontSize=12;startSize=8;endSize=8;curved=1;exitX=0.5;exitY=1;exitDx=0;exitDy=0;" edge="1" parent="1gQVhbo7qecBlJHeuTmW-1" source="1gQVhbo7qecBlJHeuTmW-4">
          <mxGeometry width="50" height="50" relative="1" as="geometry">
            <mxPoint x="260" y="510" as="sourcePoint" />
            <mxPoint x="265" y="310" as="targetPoint" />
          </mxGeometry>
        </mxCell>
        <mxCell id="lW0XTbSAqNNgikckN9dO-4" value="" style="endArrow=classic;html=1;rounded=0;fontSize=12;startSize=8;endSize=8;curved=1;exitX=0.5;exitY=1;exitDx=0;exitDy=0;" edge="1" parent="1gQVhbo7qecBlJHeuTmW-1" source="1gQVhbo7qecBlJHeuTmW-8">
          <mxGeometry width="50" height="50" relative="1" as="geometry">
            <mxPoint x="260" y="510" as="sourcePoint" />
            <mxPoint x="265" y="400" as="targetPoint" />
          </mxGeometry>
        </mxCell>
        <mxCell id="lW0XTbSAqNNgikckN9dO-5" value="" style="endArrow=classic;html=1;rounded=0;fontSize=12;startSize=8;endSize=8;curved=1;exitX=0.5;exitY=1;exitDx=0;exitDy=0;" edge="1" parent="1gQVhbo7qecBlJHeuTmW-1" source="1gQVhbo7qecBlJHeuTmW-9">
          <mxGeometry width="50" height="50" relative="1" as="geometry">
            <mxPoint x="260" y="660" as="sourcePoint" />
            <mxPoint x="265" y="480" as="targetPoint" />
          </mxGeometry>
        </mxCell>
        <mxCell id="lW0XTbSAqNNgikckN9dO-7" value="" style="endArrow=classic;html=1;rounded=0;fontSize=12;startSize=8;endSize=8;curved=1;exitX=0.5;exitY=1;exitDx=0;exitDy=0;entryX=0.5;entryY=0;entryDx=0;entryDy=0;" edge="1" parent="1gQVhbo7qecBlJHeuTmW-1" source="1gQVhbo7qecBlJHeuTmW-11" target="1gQVhbo7qecBlJHeuTmW-13">
          <mxGeometry width="50" height="50" relative="1" as="geometry">
            <mxPoint x="260" y="550" as="sourcePoint" />
            <mxPoint x="310" y="500" as="targetPoint" />
          </mxGeometry>
        </mxCell>
        <mxCell id="lW0XTbSAqNNgikckN9dO-8" value="" style="endArrow=classic;html=1;rounded=0;fontSize=12;startSize=8;endSize=8;curved=1;exitX=0.5;exitY=1;exitDx=0;exitDy=0;" edge="1" parent="1gQVhbo7qecBlJHeuTmW-1" source="1gQVhbo7qecBlJHeuTmW-13">
          <mxGeometry width="50" height="50" relative="1" as="geometry">
            <mxPoint x="260" y="660" as="sourcePoint" />
            <mxPoint x="265" y="660" as="targetPoint" />
          </mxGeometry>
        </mxCell>
        <mxCell id="lW0XTbSAqNNgikckN9dO-9" value="" style="endArrow=classic;html=1;rounded=0;fontSize=12;startSize=8;endSize=8;curved=1;exitX=0.5;exitY=1;exitDx=0;exitDy=0;" edge="1" parent="1gQVhbo7qecBlJHeuTmW-1" source="1gQVhbo7qecBlJHeuTmW-15" target="lW0XTbSAqNNgikckN9dO-10">
          <mxGeometry width="50" height="50" relative="1" as="geometry">
            <mxPoint x="260" y="660" as="sourcePoint" />
            <mxPoint x="265" y="740" as="targetPoint" />
          </mxGeometry>
        </mxCell>
        <mxCell id="lW0XTbSAqNNgikckN9dO-10" value="carattere=&quot;&quot;" style="rounded=0;whiteSpace=wrap;html=1;fontSize=16;" vertex="1" parent="1gQVhbo7qecBlJHeuTmW-1">
          <mxGeometry x="220" y="750" width="95" height="30" as="geometry" />
        </mxCell>
        <mxCell id="lW0XTbSAqNNgikckN9dO-11" value="errore_1=&quot;Errore: non hai digitato come richiesto, riprova.&quot;" style="rounded=0;whiteSpace=wrap;html=1;fontSize=16;" vertex="1" parent="1gQVhbo7qecBlJHeuTmW-1">
          <mxGeometry x="167.5" y="810" width="200" height="110" as="geometry" />
        </mxCell>
        <mxCell id="lW0XTbSAqNNgikckN9dO-12" value="" style="endArrow=classic;html=1;rounded=0;fontSize=12;startSize=8;endSize=8;curved=1;exitX=0.5;exitY=1;exitDx=0;exitDy=0;" edge="1" parent="1gQVhbo7qecBlJHeuTmW-1" source="lW0XTbSAqNNgikckN9dO-10">
          <mxGeometry width="50" height="50" relative="1" as="geometry">
            <mxPoint x="252.5" y="850" as="sourcePoint" />
            <mxPoint x="267.5" y="810" as="targetPoint" />
          </mxGeometry>
        </mxCell>
        <mxCell id="lW0XTbSAqNNgikckN9dO-13" style="edgeStyle=none;curved=1;rounded=0;orthogonalLoop=1;jettySize=auto;html=1;exitX=0.75;exitY=1;exitDx=0;exitDy=0;fontSize=12;startSize=8;endSize=8;" edge="1" parent="1gQVhbo7qecBlJHeuTmW-1" source="lW0XTbSAqNNgikckN9dO-11" target="lW0XTbSAqNNgikckN9dO-11">
          <mxGeometry relative="1" as="geometry" />
        </mxCell>
        <mxCell id="lW0XTbSAqNNgikckN9dO-16" value="attenzione=&quot;La tua password NON è sicura.&quot;" style="rounded=0;whiteSpace=wrap;html=1;fontSize=16;" vertex="1" parent="1gQVhbo7qecBlJHeuTmW-1">
          <mxGeometry x="452.5" y="620" width="145" height="100" as="geometry" />
        </mxCell>
        <mxCell id="lW0XTbSAqNNgikckN9dO-18" value="" style="endArrow=classic;html=1;rounded=0;fontSize=12;startSize=8;endSize=8;curved=1;exitX=0.5;exitY=1;exitDx=0;exitDy=0;entryX=0.5;entryY=0;entryDx=0;entryDy=0;" edge="1" parent="1gQVhbo7qecBlJHeuTmW-1" source="lW0XTbSAqNNgikckN9dO-16" target="lW0XTbSAqNNgikckN9dO-19">
          <mxGeometry width="50" height="50" relative="1" as="geometry">
            <mxPoint x="222.5" y="1119" as="sourcePoint" />
            <mxPoint x="267.5" y="1069" as="targetPoint" />
          </mxGeometry>
        </mxCell>
        <mxCell id="lW0XTbSAqNNgikckN9dO-19" value="consiglio=&quot;Per rendere la password più sicura inserisci anche:&quot;" style="rounded=0;whiteSpace=wrap;html=1;fontSize=16;" vertex="1" parent="1gQVhbo7qecBlJHeuTmW-1">
          <mxGeometry x="412.5" y="810" width="225" height="150" as="geometry" />
        </mxCell>
        <mxCell id="lW0XTbSAqNNgikckN9dO-24" value="" style="endArrow=classic;html=1;rounded=0;fontSize=12;startSize=8;endSize=8;curved=1;exitX=1;exitY=0.5;exitDx=0;exitDy=0;" edge="1" parent="1gQVhbo7qecBlJHeuTmW-1" source="lW0XTbSAqNNgikckN9dO-11">
          <mxGeometry width="50" height="50" relative="1" as="geometry">
            <mxPoint x="430" y="760" as="sourcePoint" />
            <mxPoint x="440" y="530" as="targetPoint" />
            <Array as="points">
              <mxPoint x="420" y="790" />
              <mxPoint x="360" y="520" />
            </Array>
          </mxGeometry>
        </mxCell>
        <mxCell id="lW0XTbSAqNNgikckN9dO-25" value="errore_2=&quot;Errore. Riprova&quot;" style="rounded=0;whiteSpace=wrap;html=1;fontSize=16;" vertex="1" parent="1gQVhbo7qecBlJHeuTmW-1">
          <mxGeometry x="440" y="490" width="170" height="80" as="geometry" />
        </mxCell>
        <mxCell id="lW0XTbSAqNNgikckN9dO-26" value="" style="endArrow=classic;html=1;rounded=0;fontSize=12;startSize=8;endSize=8;curved=1;exitX=0.5;exitY=1;exitDx=0;exitDy=0;" edge="1" parent="1gQVhbo7qecBlJHeuTmW-1" source="lW0XTbSAqNNgikckN9dO-25">
          <mxGeometry width="50" height="50" relative="1" as="geometry">
            <mxPoint x="550" y="670" as="sourcePoint" />
            <mxPoint x="525" y="620" as="targetPoint" />
          </mxGeometry>
        </mxCell>
        <mxCell id="lW0XTbSAqNNgikckN9dO-27" value="" style="endArrow=classic;html=1;rounded=0;fontSize=12;startSize=8;endSize=8;curved=1;exitX=0.5;exitY=1;exitDx=0;exitDy=0;" edge="1" parent="1gQVhbo7qecBlJHeuTmW-1" source="lW0XTbSAqNNgikckN9dO-19">
          <mxGeometry width="50" height="50" relative="1" as="geometry">
            <mxPoint x="440" y="1050" as="sourcePoint" />
            <mxPoint x="525" y="1040" as="targetPoint" />
          </mxGeometry>
        </mxCell>
      </root>
    </mxGraphModel>
  </diagram>
  <diagram name="Variabili int" id="y-PyU5NP6CQiqkNrOGyP">
    <mxGraphModel dx="1042" dy="1162" grid="1" gridSize="10" guides="1" tooltips="1" connect="1" arrows="1" fold="1" page="1" pageScale="1" pageWidth="827" pageHeight="1169" math="0" shadow="0">
      <root>
        <mxCell id="n1N3A84Yth6Xq1HWZbmO-0" />
        <mxCell id="n1N3A84Yth6Xq1HWZbmO-1" parent="n1N3A84Yth6Xq1HWZbmO-0" />
        <mxCell id="Uq4mQnp3EBLkeGYAH3hO-0" value="" style="endArrow=classic;html=1;rounded=0;fontSize=12;startSize=8;endSize=8;curved=1;" edge="1" parent="n1N3A84Yth6Xq1HWZbmO-1">
          <mxGeometry width="50" height="50" relative="1" as="geometry">
            <mxPoint x="190" y="40" as="sourcePoint" />
            <mxPoint x="190" y="120" as="targetPoint" />
          </mxGeometry>
        </mxCell>
        <mxCell id="3rWO-DXDpREMKjo093Uj-0" value="lunghezza=0" style="rounded=0;whiteSpace=wrap;html=1;fontSize=16;" vertex="1" parent="n1N3A84Yth6Xq1HWZbmO-1">
          <mxGeometry x="130" y="120" width="120" height="60" as="geometry" />
        </mxCell>
        <mxCell id="3rWO-DXDpREMKjo093Uj-1" value="" style="endArrow=classic;html=1;rounded=0;fontSize=12;startSize=8;endSize=8;curved=1;exitX=0.5;exitY=1;exitDx=0;exitDy=0;" edge="1" parent="n1N3A84Yth6Xq1HWZbmO-1" source="3rWO-DXDpREMKjo093Uj-0">
          <mxGeometry width="50" height="50" relative="1" as="geometry">
            <mxPoint x="190" y="290" as="sourcePoint" />
            <mxPoint x="190" y="230" as="targetPoint" />
          </mxGeometry>
        </mxCell>
        <mxCell id="3rWO-DXDpREMKjo093Uj-2" value="i=0" style="rounded=0;whiteSpace=wrap;html=1;fontSize=16;" vertex="1" parent="n1N3A84Yth6Xq1HWZbmO-1">
          <mxGeometry x="130" y="230" width="120" height="60" as="geometry" />
        </mxCell>
        <mxCell id="3rWO-DXDpREMKjo093Uj-3" value="" style="endArrow=classic;html=1;rounded=0;fontSize=12;startSize=8;endSize=8;curved=1;exitX=0.5;exitY=1;exitDx=0;exitDy=0;" edge="1" parent="n1N3A84Yth6Xq1HWZbmO-1" source="3rWO-DXDpREMKjo093Uj-2">
          <mxGeometry width="50" height="50" relative="1" as="geometry">
            <mxPoint x="210" y="420" as="sourcePoint" />
            <mxPoint x="190" y="340" as="targetPoint" />
          </mxGeometry>
        </mxCell>
        <mxCell id="3rWO-DXDpREMKjo093Uj-4" value="conta_maiuscole=0" style="rounded=0;whiteSpace=wrap;html=1;fontSize=16;" vertex="1" parent="n1N3A84Yth6Xq1HWZbmO-1">
          <mxGeometry x="105" y="340" width="170" height="70" as="geometry" />
        </mxCell>
        <mxCell id="3rWO-DXDpREMKjo093Uj-5" value="conta_minuscole=0" style="rounded=0;whiteSpace=wrap;html=1;fontSize=16;" vertex="1" parent="n1N3A84Yth6Xq1HWZbmO-1">
          <mxGeometry x="105" y="460" width="170" height="70" as="geometry" />
        </mxCell>
        <mxCell id="3rWO-DXDpREMKjo093Uj-6" value="" style="endArrow=classic;html=1;rounded=0;fontSize=12;startSize=8;endSize=8;curved=1;exitX=0.5;exitY=1;exitDx=0;exitDy=0;" edge="1" parent="n1N3A84Yth6Xq1HWZbmO-1" source="3rWO-DXDpREMKjo093Uj-4">
          <mxGeometry width="50" height="50" relative="1" as="geometry">
            <mxPoint x="170" y="470" as="sourcePoint" />
            <mxPoint x="190" y="460" as="targetPoint" />
          </mxGeometry>
        </mxCell>
        <mxCell id="3rWO-DXDpREMKjo093Uj-7" value="conta_numeri=0" style="rounded=0;whiteSpace=wrap;html=1;fontSize=16;" vertex="1" parent="n1N3A84Yth6Xq1HWZbmO-1">
          <mxGeometry x="105" y="585" width="170" height="70" as="geometry" />
        </mxCell>
        <mxCell id="3rWO-DXDpREMKjo093Uj-8" value="" style="endArrow=classic;html=1;rounded=0;fontSize=12;startSize=8;endSize=8;curved=1;exitX=0.5;exitY=1;exitDx=0;exitDy=0;entryX=0.5;entryY=0;entryDx=0;entryDy=0;" edge="1" parent="n1N3A84Yth6Xq1HWZbmO-1" source="3rWO-DXDpREMKjo093Uj-5" target="3rWO-DXDpREMKjo093Uj-7">
          <mxGeometry width="50" height="50" relative="1" as="geometry">
            <mxPoint x="190" y="610" as="sourcePoint" />
            <mxPoint x="240" y="560" as="targetPoint" />
          </mxGeometry>
        </mxCell>
        <mxCell id="3rWO-DXDpREMKjo093Uj-9" value="" style="endArrow=classic;html=1;rounded=0;fontSize=12;startSize=8;endSize=8;curved=1;exitX=0.5;exitY=1;exitDx=0;exitDy=0;" edge="1" parent="n1N3A84Yth6Xq1HWZbmO-1" source="3rWO-DXDpREMKjo093Uj-7">
          <mxGeometry width="50" height="50" relative="1" as="geometry">
            <mxPoint x="190" y="750" as="sourcePoint" />
            <mxPoint x="190" y="710" as="targetPoint" />
          </mxGeometry>
        </mxCell>
        <mxCell id="3rWO-DXDpREMKjo093Uj-10" value="conta_simboli=0" style="rounded=0;whiteSpace=wrap;html=1;fontSize=16;" vertex="1" parent="n1N3A84Yth6Xq1HWZbmO-1">
          <mxGeometry x="120" y="710" width="140" height="70" as="geometry" />
        </mxCell>
        <mxCell id="3rWO-DXDpREMKjo093Uj-11" value="password_sicura=1" style="rounded=0;whiteSpace=wrap;html=1;fontSize=16;" vertex="1" parent="n1N3A84Yth6Xq1HWZbmO-1">
          <mxGeometry x="95" y="840" width="190" height="60" as="geometry" />
        </mxCell>
        <mxCell id="3rWO-DXDpREMKjo093Uj-12" value="" style="endArrow=classic;html=1;rounded=0;fontSize=12;startSize=8;endSize=8;curved=1;exitX=0.5;exitY=1;exitDx=0;exitDy=0;entryX=0.5;entryY=0;entryDx=0;entryDy=0;" edge="1" parent="n1N3A84Yth6Xq1HWZbmO-1" source="3rWO-DXDpREMKjo093Uj-10" target="3rWO-DXDpREMKjo093Uj-11">
          <mxGeometry width="50" height="50" relative="1" as="geometry">
            <mxPoint x="220" y="850" as="sourcePoint" />
            <mxPoint x="270" y="800" as="targetPoint" />
          </mxGeometry>
        </mxCell>
        <mxCell id="3rWO-DXDpREMKjo093Uj-13" value="password_stampta=0" style="rounded=0;whiteSpace=wrap;html=1;fontSize=16;" vertex="1" parent="n1N3A84Yth6Xq1HWZbmO-1">
          <mxGeometry x="105" y="950" width="180" height="60" as="geometry" />
        </mxCell>
        <mxCell id="3rWO-DXDpREMKjo093Uj-14" value="" style="endArrow=classic;html=1;rounded=0;fontSize=12;startSize=8;endSize=8;curved=1;exitX=0.5;exitY=1;exitDx=0;exitDy=0;" edge="1" parent="n1N3A84Yth6Xq1HWZbmO-1" source="3rWO-DXDpREMKjo093Uj-11">
          <mxGeometry width="50" height="50" relative="1" as="geometry">
            <mxPoint x="190" y="960" as="sourcePoint" />
            <mxPoint x="190" y="950" as="targetPoint" />
          </mxGeometry>
        </mxCell>
        <mxCell id="3rWO-DXDpREMKjo093Uj-15" value="" style="endArrow=classic;html=1;rounded=0;fontSize=12;startSize=8;endSize=8;curved=1;exitX=0.5;exitY=1;exitDx=0;exitDy=0;" edge="1" parent="n1N3A84Yth6Xq1HWZbmO-1" source="3rWO-DXDpREMKjo093Uj-13">
          <mxGeometry width="50" height="50" relative="1" as="geometry">
            <mxPoint x="230" y="1090" as="sourcePoint" />
            <mxPoint x="195" y="1070" as="targetPoint" />
          </mxGeometry>
        </mxCell>
      </root>
    </mxGraphModel>
  </diagram>
  <diagram name="Copia di Variabili int" id="6cJN1Biv3M4-pSvyx0tF">
    <mxGraphModel dx="5210" dy="5810" grid="1" gridSize="10" guides="1" tooltips="1" connect="1" arrows="1" fold="1" page="1" pageScale="1" pageWidth="827" pageHeight="1169" math="0" shadow="0">
      <root>
        <mxCell id="t7gW79jMbOd3pQxAGhmv-0" />
        <mxCell id="t7gW79jMbOd3pQxAGhmv-1" parent="t7gW79jMbOd3pQxAGhmv-0" />
      </root>
    </mxGraphModel>
  </diagram>
</mxfile>
